<svg width="29" height="28" viewBox="0 0 29 28" fill="none" xmlns="http://www.w3.org/2000/svg">
<path d="M18.8467 9.54531L18.8922 9.93895L19.2859 9.98451C22.013 10.3001 24.3279 10.8949 25.9453 11.6508C26.7548 12.0292 27.3655 12.4368 27.767 12.8495C28.1665 13.2601 28.332 13.6456 28.332 13.9996C28.332 14.3535 28.1665 14.7388 27.7671 15.1491C27.3656 15.5615 26.755 15.9689 25.9453 16.3471C24.3279 17.1027 22.0129 17.6974 19.2856 18.0147L18.8922 18.0605L18.8467 18.4539C18.5311 21.1831 17.9363 23.4978 17.1805 25.1143C16.8021 25.9235 16.3945 26.5336 15.9818 26.9347C15.5713 27.3337 15.1858 27.4992 14.8316 27.4992C14.4776 27.4992 14.0922 27.3336 13.6817 26.9343C13.269 26.5328 12.8614 25.9223 12.4831 25.1128C11.7273 23.4957 11.1326 21.1809 10.8165 18.4538L10.7709 18.0602L10.3774 18.0147C7.64814 17.6986 5.33344 17.1039 3.71689 16.3481C2.9077 15.9698 2.29757 15.5623 1.89646 15.1497C1.49747 14.7392 1.33203 14.3537 1.33203 13.9996C1.33203 13.6456 1.49759 13.2601 1.89694 12.8495C2.29838 12.4368 2.90893 12.0291 3.71841 11.6508C5.33551 10.8949 7.65023 10.3001 10.3773 9.98451L10.771 9.93895L10.8165 9.54534C11.1326 6.81611 11.7273 4.50141 12.4831 2.88486C12.8614 2.07567 13.2689 1.46553 13.6815 1.06443C14.092 0.66544 14.4775 0.5 14.8316 0.5C15.1856 0.5 15.5711 0.665554 15.9817 1.06491C16.3944 1.46635 16.8021 2.0769 17.1804 2.88637C17.9363 4.50348 18.5311 6.8182 18.8467 9.54531Z" fill="#FFF59A" stroke="#646464"/>
</svg>
